<?xml version="1.0" encoding="UTF-8"?>
<svg version="1.1" xmlns="http://www.w3.org/2000/svg" width="878" height="331">
<path d="M0 0 C1.7125296 -0.01925285 1.7125296 -0.01925285 3.45965576 -0.03889465 C5.31895721 -0.04997505 5.31895721 -0.04997505 7.21582031 -0.0612793 C8.48613098 -0.06935104 9.75644165 -0.07742279 11.06524658 -0.08573914 C13.75870419 -0.09959131 16.45203893 -0.11060399 19.14550781 -0.11816406 C22.58663115 -0.12920954 26.02710442 -0.16358628 29.4679985 -0.20333576 C32.75887443 -0.23585883 36.04980818 -0.24028631 39.34082031 -0.2487793 C40.57225769 -0.26628738 41.80369507 -0.28379547 43.07244873 -0.30183411 C49.5407554 -0.28544014 53.66275079 -0.24461276 58.54394531 4.17700195 C59.90519531 5.38356445 59.90519531 5.38356445 61.29394531 6.61450195 C68.49875126 16.00858187 65.76882206 33.84570728 65.66894531 44.98950195 C65.65889168 46.95369008 65.64977006 48.91788321 65.64160156 50.88208008 C65.61978557 55.64717974 65.58538813 60.41203423 65.54394531 65.17700195 C66.45982422 65.17176514 67.37570313 65.16652832 68.31933594 65.16113281 C71.80095073 65.14382987 75.28251819 65.13142755 78.76416016 65.12207031 C80.25537854 65.11711981 81.7465923 65.1103577 83.23779297 65.1015625 C91.2809994 65.0553996 99.30718313 65.11846432 107.34082031 65.54418945 C108.61280273 65.61105957 109.88478516 65.67792969 111.1953125 65.74682617 C117.60195373 66.56984322 121.01055799 69.28975602 124.98144531 74.17700195 C127.29405927 78.61722074 127.6684441 82.61682127 127.70507812 87.57470703 C127.71468567 88.62962845 127.72429321 89.68454987 127.73419189 90.7714386 C127.74056671 92.46686043 127.74056671 92.46686043 127.74707031 94.1965332 C127.75277039 95.3690715 127.75847046 96.5416098 127.76434326 97.74967957 C127.77377982 100.22845562 127.7803219 102.70724414 127.78417969 105.18603516 C127.79388279 108.96514918 127.82491887 112.74371865 127.85644531 116.52270508 C127.86297613 118.93481124 127.86822629 121.34692127 127.87207031 123.7590332 C127.88441711 124.88324173 127.89676392 126.00745026 127.90948486 127.16572571 C127.88853619 134.59543824 127.38336015 140.735287 122.48144531 146.67700195 C120.54394531 148.17700195 120.54394531 148.17700195 118.54394531 148.17700195 C118.38539063 149.03680664 118.22683594 149.89661133 118.06347656 150.7824707 C113.44308539 174.19075086 101.71255387 192.97968353 82.07519531 206.9309082 C76.26965217 210.59611661 68.58790618 215.17700195 61.54394531 215.17700195 C61.6921875 215.99555664 61.84042969 216.81411133 61.99316406 217.6574707 C62.38751966 220.17743094 62.7042988 222.6316855 62.93847656 225.1652832 C63.92070886 235.58029137 65.22780229 244.15284509 72.54394531 252.17700195 C73.05957031 252.75450195 73.57519531 253.33200195 74.10644531 253.92700195 C75.64045532 255.42243783 75.64045532 255.42243783 78.54394531 256.17700195 C78.64320313 255.43708008 78.74246094 254.6971582 78.84472656 253.93481445 C80.25666133 248.3659544 84.79230846 244.42261038 89.35644531 241.17700195 C95.28811561 239.31608578 101.04670598 239.18517336 106.79394531 241.73950195 C112.15745561 244.82297751 115.57088594 248.89242778 117.98144531 254.55200195 C119.02256633 261.26144852 118.40474869 267.44806791 114.54394531 273.17700195 C110.13360485 278.20224565 105.82958259 281.23958094 99.12597656 282.14575195 C93.49614269 282.21388913 88.7050871 281.13502891 84.46582031 277.29418945 C82.72713421 275.31442502 81.13758188 273.27366969 79.54394531 271.17700195 C77.25225574 268.53323717 75.05257347 267.37934104 71.85644531 265.98950195 C61.45791913 260.85835148 56.26216399 253.01793327 52.54394531 242.17700195 C50.49104921 234.30566608 49.54245815 226.23467104 48.54394531 218.17700195 C47.91025024 218.17335632 47.27655518 218.16971069 46.62365723 218.16595459 C40.00427094 218.12401472 33.3855706 218.05458847 26.76660156 217.96948242 C24.29922357 217.94132635 21.83175628 217.92008527 19.36425781 217.90600586 C15.80910705 217.88450293 12.25502393 217.83781177 8.70019531 217.78637695 C7.60404907 217.78514832 6.50790283 217.78391968 5.37854004 217.78265381 C-2.41525723 217.63494914 -8.1774693 216.54186591 -13.83105469 210.73950195 C-17.38980323 205.12762925 -17.85460974 200.30209528 -18.08105469 193.80200195 C-18.13797485 192.40570557 -18.13797485 192.40570557 -18.19604492 190.98120117 C-18.68016842 177.38841839 -18.54249288 163.77572378 -18.45605469 150.17700195 C-19.0925293 150.3385376 -19.72900391 150.50007324 -20.38476562 150.66650391 C-24.47133305 151.34575768 -28.46079708 151.33950963 -32.59667969 151.3449707 C-33.47829773 151.3482991 -34.35991577 151.3516275 -35.26824951 151.35505676 C-37.1308134 151.36010902 -38.9933863 151.36246561 -40.85595703 151.36230469 C-43.68244654 151.36448375 -46.50854077 151.3826371 -49.33496094 151.40161133 C-51.15136586 151.40454722 -52.96777263 151.4065307 -54.78417969 151.4074707 C-55.6188678 151.41465622 -56.45355591 151.42184174 -57.3135376 151.429245 C-65.46836717 151.39804055 -73.01705944 150.56778867 -79.45605469 145.17700195 C-83.59546581 139.91883107 -84.56555445 135.63252313 -84.6171875 129.07055664 C-84.62679504 128.07892517 -84.63640259 127.0872937 -84.64630127 126.06561279 C-84.65055115 125.00408997 -84.65480103 123.94256714 -84.65917969 122.84887695 C-84.66487976 121.74529846 -84.67057983 120.64171997 -84.67645264 119.50469971 C-84.6858877 117.17135574 -84.69243067 114.83799853 -84.69628906 112.50463867 C-84.70598159 108.95378076 -84.73701462 105.40350508 -84.76855469 101.8527832 C-84.77508668 99.58065121 -84.78033638 97.30851509 -84.78417969 95.03637695 C-84.79652649 93.98295105 -84.80887329 92.92952515 -84.82159424 91.84417725 C-84.79867159 84.17370602 -84.08935037 77.36467567 -79.08105469 71.30200195 C-78.21480469 70.60075195 -77.34855469 69.89950195 -76.45605469 69.17700195 C-75.81039551 68.64945312 -75.16473633 68.1219043 -74.49951172 67.57836914 C-69.81737322 65.42246709 -65.23356174 65.67601087 -60.13574219 65.63012695 C-59.0401297 65.60980408 -57.94451721 65.5894812 -56.81570435 65.56854248 C-54.50436025 65.52839532 -52.19288617 65.49520839 -49.88134766 65.46850586 C-46.33682267 65.42706938 -42.79316116 65.36444692 -39.24902344 65.2980957 C-37.0029494 65.26170177 -34.75685559 65.22650448 -32.51074219 65.19262695 C-30.91696243 65.1661911 -30.91696243 65.1661911 -29.29098511 65.13922119 C-28.30631256 65.12880798 -27.32164001 65.11839478 -26.30712891 65.10766602 C-25.44062714 65.09672913 -24.57412537 65.08579224 -23.68136597 65.07452393 C-21.45605469 65.17700195 -21.45605469 65.17700195 -18.45605469 66.17700195 C-18.4612915 65.13995117 -18.46652832 64.10290039 -18.47192383 63.03442383 C-18.49032567 59.10555927 -18.50161217 55.17669832 -18.51098633 51.24780273 C-18.51594759 49.56257482 -18.52271872 47.87735104 -18.53149414 46.19213867 C-18.57520498 37.56824779 -18.55644544 28.94886731 -18.13964844 20.33325195 C-18.08220459 19.09381836 -18.02476074 17.85438477 -17.96557617 16.57739258 C-17.15822466 11.18937537 -15.14275183 7.26936619 -10.89355469 3.86450195 C-9.99443359 3.12780273 -9.99443359 3.12780273 -9.07714844 2.3762207 C-5.95831026 0.06903198 -3.83788276 0.03748756 0 0 Z M28.66894531 84.80200195 C26.93876941 88.45459554 26.82345813 92.18664731 26.54394531 96.17700195 C25.31417969 96.2027832 24.08441406 96.22856445 22.81738281 96.25512695 C21.18453599 96.31143202 19.55172486 96.36877881 17.91894531 96.42700195 C17.11070312 96.44118164 16.30246094 96.45536133 15.46972656 96.4699707 C10.09191943 96.68858075 6.7058447 97.46079617 2.54394531 101.17700195 C-1.15338432 107.32458092 -3.11674186 114.05143266 -3.45605469 121.17700195 C-3.49472656 121.97106445 -3.53339844 122.76512695 -3.57324219 123.58325195 C-4.15794632 145.67207483 2.95109339 167.95747028 17.34863281 184.89575195 C26.90301897 194.82415322 36.68813884 201.21602954 50.60644531 201.48950195 C64.59071442 201.50472431 75.83275651 194.92102456 85.79394531 185.42700195 C93.74295307 177.07487494 102.13956266 165.2204686 102.67285156 153.29418945 C102.60904297 152.24618164 102.60904297 152.24618164 102.54394531 151.17700195 C99.56820255 150.47433583 99.56820255 150.47433583 96.54394531 150.17700195 C86.21061198 150.17700195 75.87727865 150.17700195 65.54394531 150.17700195 C65.52936279 150.95825439 65.51478027 151.73950684 65.49975586 152.54443359 C65.42494033 156.10993563 65.32838898 159.67453573 65.23144531 163.23950195 C65.20888672 164.46862305 65.18632812 165.69774414 65.16308594 166.96411133 C64.81654358 178.65203989 64.81654358 178.65203989 61.54394531 184.17700195 C57.2373418 187.21119988 53.73439245 187.86906157 48.54394531 187.17700195 C33.3686337 181.81224368 25.76611043 168.21962718 18.71582031 154.66137695 C13.56852745 143.48291266 9.81876748 130.58413545 10.54394531 118.17700195 C13.52923943 112.51523725 13.52923943 112.51523725 17.54394531 111.17700195 C20.27683825 110.94902633 22.99436735 110.76032008 25.73144531 110.61450195 C26.48103516 110.57131836 27.230625 110.52813477 28.00292969 110.48364258 C29.84972906 110.3777751 31.69681366 110.27690436 33.54394531 110.17700195 C34.03314453 111.22500977 34.03314453 111.22500977 34.53222656 112.29418945 C34.96921875 113.20426758 35.40621094 114.1143457 35.85644531 115.05200195 C36.28570312 115.95692383 36.71496094 116.8618457 37.15722656 117.79418945 C38.46388412 120.44149671 38.46388412 120.44149671 41.54394531 122.17700195 C45.34479537 122.672765 47.08651155 122.44549568 50.41894531 120.48950195 C52.81629285 118.37482491 52.81629285 118.37482491 52.67675781 115.5324707 C52.63292969 114.75516602 52.58910156 113.97786133 52.54394531 113.17700195 C53.4965625 113.2234082 54.44917969 113.26981445 55.43066406 113.31762695 C56.68492187 113.3537207 57.93917969 113.38981445 59.23144531 113.42700195 C60.4728125 113.4734082 61.71417969 113.51981445 62.99316406 113.56762695 C67.14026243 113.11140051 68.72374229 112.20925031 71.54394531 109.17700195 C72.41080465 106.42028158 72.13836365 103.98750419 71.54394531 101.17700195 C70.31959376 98.53462349 70.31959376 98.53462349 67.54394531 97.17700195 C62.28168824 96.1227484 56.89695808 96.0361332 51.54394531 96.17700195 C50.55394531 92.54700195 49.56394531 88.91700195 48.54394531 85.17700195 C47.88394531 85.17700195 47.22394531 85.17700195 46.54394531 85.17700195 C46.04894531 83.69200195 46.04894531 83.69200195 45.54394531 82.17700195 C38.83866555 79.63361997 34.36547617 79.86500855 28.66894531 84.80200195 Z M88.54394531 256.17700195 C86.94517675 260.3338002 87.79808621 263.16152601 89.54394531 267.17700195 C91.40754801 270.17947297 92.83334648 270.25291046 96.35644531 271.17700195 C99.91085439 271.48522562 100.64879253 271.11790625 103.98144531 269.23950195 C106.72309935 265.96289103 107.49227337 264.26359265 107.71972656 260.10668945 C107.45233461 257.17131999 106.3966192 255.42667739 104.54394531 253.17700195 C98.23139213 248.96863316 92.88820286 250.25301439 88.54394531 256.17700195 Z " fill="#1578FD" transform="translate(155.4560546875,25.822998046875)"/>
<path d="M0 0 C0.83265381 0.00523682 1.66530762 0.01047363 2.52319336 0.01586914 C3.42231445 0.0190918 4.32143555 0.02231445 5.24780273 0.02563477 C6.66609375 0.03820312 6.66609375 0.03820312 8.11303711 0.05102539 C9.06243164 0.05553711 10.01182617 0.06004883 10.98999023 0.06469727 C13.34356776 0.07652429 15.69702188 0.09300514 18.05053711 0.11352539 C25.38387044 14.78019206 32.71720378 29.44685872 40.05053711 44.11352539 C46.28268972 32.42134527 52.33130114 20.65200099 58.2019043 8.77368164 C58.93328613 7.29834961 58.93328613 7.29834961 59.67944336 5.79321289 C60.11329346 4.91391113 60.54714355 4.03460938 60.99414062 3.12866211 C62.05053711 1.11352539 62.05053711 1.11352539 63.05053711 0.11352539 C64.53925571 0.02683107 66.03198211 0.00649045 67.52319336 0.01586914 C68.42231445 0.0190918 69.32143555 0.02231445 70.24780273 0.02563477 C71.66609375 0.03820312 71.66609375 0.03820312 73.11303711 0.05102539 C74.53712891 0.05779297 74.53712891 0.05779297 75.98999023 0.06469727 C78.34356776 0.07652429 80.69702188 0.09300514 83.05053711 0.11352539 C84.06142583 28.1172938 84.1664836 56.09371779 84.05053711 84.11352539 C78.11053711 84.11352539 72.17053711 84.11352539 66.05053711 84.11352539 C66.05839233 81.86511841 66.05839233 81.86511841 66.06640625 79.57128906 C66.08448187 74.0195373 66.09597854 68.46778816 66.10546875 62.91601562 C66.11050309 60.51138878 66.11733097 58.10676501 66.12597656 55.70214844 C66.1380814 52.24942264 66.14377437 48.79673725 66.14819336 45.34399414 C66.15335464 44.26578903 66.15851593 43.18758392 66.16383362 42.07670593 C66.16394691 40.57548943 66.16394691 40.57548943 66.1640625 39.04394531 C66.16628311 38.16236252 66.16850372 37.28077972 66.17079163 36.3724823 C66.14174578 33.94490252 66.14174578 33.94490252 65.05053711 31.11352539 C64.54079346 32.13824951 64.0310498 33.16297363 63.50585938 34.21875 C61.62001583 38.00849247 59.73155423 41.79692516 57.84228516 45.58496094 C57.02385752 47.22685519 56.20614714 48.86910717 55.38916016 50.51171875 C54.21695857 52.86820648 53.04221132 55.22340954 51.86694336 57.57836914 C51.5002504 58.31691635 51.13355743 59.05546356 50.75575256 59.81639099 C48.16440882 64.99965368 48.16440882 64.99965368 47.05053711 66.11352539 C44.69740156 66.18624281 42.34220042 66.19723407 39.98803711 66.17602539 C38.05250977 66.16249023 38.05250977 66.16249023 36.07788086 66.14868164 C35.07885742 66.13708008 34.07983398 66.12547852 33.05053711 66.11352539 C27.38387044 54.78019206 21.71720378 43.44685872 16.05053711 32.11352539 C14.8044503 43.02064824 14.93656752 53.90535926 14.98803711 64.86352539 C14.99306345 66.73592002 14.99762435 68.60831597 15.00170898 70.48071289 C15.01176281 75.02504328 15.0313537 79.56918815 15.05053711 84.11352539 C9.44053711 84.11352539 3.83053711 84.11352539 -1.94946289 84.11352539 C-2.67232065 79.05352107 -3.09382485 74.41513496 -3.07885742 69.3581543 C-3.08060974 68.61746704 -3.08236206 67.87677979 -3.08416748 67.11364746 C-3.08853478 64.68910311 -3.08566802 62.26463286 -3.08227539 59.84008789 C-3.08294947 58.14854926 -3.08392037 56.45701072 -3.08517456 54.76547241 C-3.08664421 51.2335314 -3.08451896 47.70161578 -3.07983398 44.16967773 C-3.07411083 39.63325822 -3.07743658 35.09689753 -3.08340645 30.56048012 C-3.08700952 27.07420401 -3.08587511 23.58794201 -3.08327866 20.1016655 C-3.08261004 18.42783984 -3.08343556 16.75401293 -3.08575821 15.08018875 C-3.08828338 12.75093402 -3.08444731 10.42177672 -3.07885742 8.0925293 C-3.08088165 7.39646576 -3.08290588 6.70040222 -3.08499146 5.98324585 C-3.05903857 0.17814063 -3.05903857 0.17814063 0 0 Z M14.05053711 28.11352539 C15.05053711 30.11352539 15.05053711 30.11352539 15.05053711 30.11352539 Z " fill="#1577FC" transform="translate(334.949462890625,98.886474609375)"/>
<path d="M0 0 C5.61 0 11.22 0 17 0 C17 27.72 17 55.44 17 84 C11.39 84 5.78 84 0 84 C-0.33 82.02 -0.66 80.04 -1 78 C-2.1446875 79.1446875 -2.1446875 79.1446875 -3.3125 80.3125 C-8.46780775 84.52608877 -14.46989652 86.31606223 -21.09765625 85.72265625 C-30.0117528 83.8181274 -36.14517194 80.10516273 -41.375 72.625 C-46.20772364 63.87063997 -47.17926879 52.19280851 -44.8828125 42.52734375 C-41.6839749 33.36960955 -36.38382945 27.15923301 -27.7109375 22.8671875 C-20.75793121 20.64302699 -11.71670493 20.64762912 -5.125 23.9375 C-2 26 -2 26 -1 27 C-1.00523682 26.21761963 -1.01047363 25.43523926 -1.01586914 24.62915039 C-1.03657106 21.10694167 -1.04963838 17.5847457 -1.0625 14.0625 C-1.07087891 12.83080078 -1.07925781 11.59910156 -1.08789062 10.33007812 C-1.09111328 9.16025391 -1.09433594 7.99042969 -1.09765625 6.78515625 C-1.10289307 5.70113525 -1.10812988 4.61711426 -1.11352539 3.50024414 C-1 1 -1 1 0 0 Z M-23 39 C-27.71447616 45.15501054 -28.70748518 50.3977502 -28 58 C-26.36184328 63.1731265 -24.31730683 66.66389927 -20 70 C-15.08326371 71.48429775 -11.43079858 71.03860619 -6.796875 69.08984375 C-2.94520889 66.75372452 -1.37403288 63.12209864 0 59 C0.55558036 52.29029874 0.36719381 46.89258916 -3 41 C-5.40835345 38.22674452 -7.22722323 36.18110883 -10.98828125 35.796875 C-15.82446163 35.69933859 -19.16869438 35.71602376 -23 39 Z " fill="#1577FC" transform="translate(541,99)"/>
<path d="M0 0 C5.59221983 5.20328725 10.59314319 11.6861058 10.890625 19.55078125 C10.849375 20.44023438 10.808125 21.3296875 10.765625 22.24609375 C-1.9759633 22.70019648 -1.9759633 22.70019648 -7.234375 21.24609375 C-9.74125768 18.84634281 -10.73740237 16.79308996 -12.1171875 13.63671875 C-13.13606459 10.93398356 -13.13606459 10.93398356 -16.296875 9.12109375 C-22.98805816 7.05426162 -31.32396749 6.96390704 -37.734375 9.87109375 C-44.96539341 14.22492799 -47.83394226 20.7371067 -49.82421875 28.56640625 C-50.9745719 36.0820468 -50.46758205 44.9202804 -46.53125 51.56640625 C-42.76225578 56.4479349 -38.38310877 60.0859553 -32.234375 61.24609375 C-25.66007963 61.84122091 -19.734354 61.93270181 -13.85546875 58.66796875 C-11.89631985 56.94958273 -11.34770536 55.38844706 -10.359375 52.99609375 C-9.26171875 50.88671875 -9.26171875 50.88671875 -7.234375 49.24609375 C-1.33531081 48.16315961 4.82512281 48.80194405 10.765625 49.24609375 C9.14653454 58.58824572 4.253692 65.93367162 -3.421875 71.43359375 C-14.21584707 78.15337048 -27.17574596 79.15034237 -39.5234375 76.5546875 C-50.56663343 72.83733 -60.22144452 65.74917494 -65.484375 55.18359375 C-68.24374517 48.35086761 -71.52568011 38.4451267 -69.234375 31.24609375 C-69.16980621 29.83074597 -69.14826461 28.41271686 -69.171875 26.99609375 C-69.1925 25.75859375 -69.213125 24.52109375 -69.234375 23.24609375 C-68.574375 23.24609375 -67.914375 23.24609375 -67.234375 23.24609375 C-67.193125 22.46234375 -67.151875 21.67859375 -67.109375 20.87109375 C-65.3357119 13.52306092 -60.88023054 7.20343032 -55.234375 2.24609375 C-54.50154297 1.50939453 -54.50154297 1.50939453 -53.75390625 0.7578125 C-39.56708834 -12.82244312 -14.90830143 -11.70249535 0 0 Z " fill="#1677FC" transform="translate(666.234375,106.75390625)"/>
<path d="M0 0 C5.75037416 4.22212156 10.15710428 9.83231098 11.6015625 16.91015625 C12.44516056 22.43436289 12.90504592 27.40655958 11.6015625 32.91015625 C9.6640625 33.47265625 9.6640625 33.47265625 7.6015625 33.91015625 C7.2715625 33.58015625 6.9415625 33.25015625 6.6015625 32.91015625 C3.9353022 32.82160464 1.29509136 32.79490952 -1.37109375 32.8125 C-2.56755775 32.81462242 -2.56755775 32.81462242 -3.78819275 32.81678772 C-6.34581185 32.82240309 -8.90334468 32.83495813 -11.4609375 32.84765625 C-13.19075395 32.85266927 -14.92057176 32.85723252 -16.65039062 32.86132812 C-20.89977303 32.8723775 -25.14909062 32.88965239 -29.3984375 32.91015625 C-28.73206079 38.26338246 -27.60111713 40.40792323 -23.3984375 43.91015625 C-18.60471271 45.50806451 -14.79654628 45.46412388 -10.0859375 43.59765625 C-7.18289863 42.03067138 -7.18289863 42.03067138 -5.3984375 38.91015625 C-2.62581495 38.52620958 -0.05520222 38.30673377 2.7265625 38.22265625 C3.48066406 38.18849609 4.23476563 38.15433594 5.01171875 38.11914062 C6.87447451 38.03661347 8.73799576 37.97170914 10.6015625 37.91015625 C11.2615625 39.23015625 11.9215625 40.55015625 12.6015625 41.91015625 C12.1684375 42.30203125 11.7353125 42.69390625 11.2890625 43.09765625 C9.49487137 44.86009738 9.49487137 44.86009738 8.4140625 47.22265625 C4.90068847 52.43214188 -0.8994359 56.48626794 -6.8828125 58.4296875 C-16.86740608 60.33668286 -25.91233998 59.90289259 -34.8359375 54.75 C-41.96891792 49.62860705 -46.05008583 43.54871776 -48.0859375 35.03515625 C-48.1890625 34.00390625 -48.2921875 32.97265625 -48.3984375 31.91015625 C-48.49511719 30.96076172 -48.49511719 30.96076172 -48.59375 29.9921875 C-49.09094012 20.89360824 -46.51659177 11.85940751 -40.6484375 4.84765625 C-29.91329667 -6.06773881 -13.13384727 -7.48735498 0 0 Z M-26.3984375 11.91015625 C-28.98401288 14.70312715 -28.98401288 14.70312715 -30.3984375 17.91015625 C-30.0684375 19.23015625 -29.7384375 20.55015625 -29.3984375 21.91015625 C-21.4784375 21.91015625 -13.5584375 21.91015625 -5.3984375 21.91015625 C-6.41137343 14.48265042 -6.41137343 14.48265042 -11.3984375 9.91015625 C-16.59171078 7.31351961 -21.62218032 9.25668004 -26.3984375 11.91015625 Z " fill="#1677FC" transform="translate(477.3984375,125.08984375)"/>
<path d="M0 0 C6.72791068 5.92730335 8.38896182 12.24404085 9 21 C9.09286687 25.95930443 9.04939938 30.91530239 9 35.875 C8.9745448 38.47652138 8.95349342 41.07809074 8.9375 43.6796875 C8.92589844 44.82163574 8.91429687 45.96358398 8.90234375 47.14013672 C8.86717078 50.07429163 8.86717078 50.07429163 10 53 C9.34 53 8.68 53 8 53 C8.66 54.65 9.32 56.3 10 58 C4.06 58 -1.88 58 -8 58 C-8.495 56.02 -8.495 56.02 -9 54 C-9.57105469 54.3609375 -10.14210938 54.721875 -10.73046875 55.09375 C-17.82138632 59.15214479 -23.90028569 60.10827293 -32 59 C-37.97656615 57.28005572 -41.47932568 54.01429372 -45 49 C-46.83329441 43.50011677 -46.80919559 38.0913828 -44.4375 32.75 C-41.32871269 27.27417113 -37.30924328 24.69376408 -31.359375 22.90625 C-26.76021197 21.82715835 -22.20817232 21.55903279 -17.5 21.375 C-16.67757812 21.33632812 -15.85515625 21.29765625 -15.0078125 21.2578125 C-13.0055299 21.16468308 -11.00279738 21.08131015 -9 21 C-9.42655476 17.90588639 -9.9654645 14.95273674 -11 12 C-14.01325914 9.76157892 -15.82098924 9.99371892 -19.5625 10.125 C-23.34121198 11.08685396 -24.69894183 11.9024217 -27 15 C-27.33 16.32 -27.66 17.64 -28 19 C-33.28 19 -38.56 19 -44 19 C-43.68151257 12.20560149 -42.7292985 7.10764238 -38 2 C-27.32075362 -5.67154419 -11.36847999 -7.26732739 0 0 Z M-28 35 C-29.26196007 38.29511795 -29.35330764 39.9944321 -28.1875 43.3125 C-27.09312675 45.15097822 -27.09312675 45.15097822 -25 46 C-19.37865715 46.58461966 -14.74682271 46.35750875 -10 43 C-7.81088607 39.31830839 -7.94208226 36.19903651 -8 32 C-18.40387066 31.51676785 -18.40387066 31.51676785 -28 35 Z " fill="#1677FC" transform="translate(730,125)"/>
<path d="M0 0 C6.65144381 5.22261514 10.69241234 12.20522875 11.921875 20.59375 C11.98720935 22.53026019 12.00771803 24.46877861 11.984375 26.40625 C11.97535156 27.38207031 11.96632813 28.35789063 11.95703125 29.36328125 C11.94542969 30.09933594 11.93382812 30.83539063 11.921875 31.59375 C7.78252811 32.74981225 3.77744497 32.73760877 -0.4921875 32.7265625 C-1.30303802 32.72751923 -2.11388855 32.72847595 -2.9493103 32.72946167 C-4.65891599 32.73014083 -6.36852429 32.72830498 -8.078125 32.72412109 C-10.7005793 32.71875521 -13.32286342 32.72408212 -15.9453125 32.73046875 C-17.60677121 32.72980819 -19.26822982 32.7285275 -20.9296875 32.7265625 C-21.71614655 32.72858673 -22.50260559 32.73061096 -23.31289673 32.73269653 C-28.8481857 32.70871965 -28.8481857 32.70871965 -31.078125 31.59375 C-28.54361206 38.74039741 -28.54361206 38.74039741 -23.078125 43.59375 C-18.54363842 45.10524553 -14.70071184 45.36816645 -10.328125 43.28125 C-8.08866177 41.78095483 -8.08866177 41.78095483 -6.94921875 40 C-3.92048555 37.72370782 -0.5177763 38.28270511 3.109375 38.40625 C4.23375977 38.42655273 4.23375977 38.42655273 5.38085938 38.44726562 C7.22817267 38.48256461 9.07511566 38.53637083 10.921875 38.59375 C8.60571672 46.16704893 5.28759155 51.5464264 -1.703125 55.53125 C-9.55240032 59.59359425 -19.2273516 59.99725923 -27.78125 57.9453125 C-34.95576863 55.01028215 -41.81709265 49.60409899 -45.33203125 42.58984375 C-48.88109509 33.09470438 -49.23024702 22.31911645 -45.453125 12.84375 C-41.54089347 5.06165769 -35.72542491 -1.20035315 -27.32421875 -3.98828125 C-17.93632756 -5.73524535 -8.00158242 -5.41460465 0 0 Z M-27.078125 11.59375 C-29.73294909 15.07248501 -30.18901128 17.14818142 -31.078125 21.59375 C-22.498125 21.59375 -13.918125 21.59375 -5.078125 21.59375 C-5.41147825 15.16532292 -5.41147825 15.16532292 -7.41796875 12.8515625 C-14.21536124 8.03189545 -19.64322421 6.69347448 -27.078125 11.59375 Z " fill="#1677FB" transform="translate(835.078125,125.40625)"/>
<path d="M0 0 C2.475 0.99 2.475 0.99 5 2 C5 7.61 5 13.22 5 19 C2.40125 19.12375 2.40125 19.12375 -0.25 19.25 C-4.79607797 19.60651777 -4.79607797 19.60651777 -8.5625 22.0625 C-9.036875 22.701875 -9.51125 23.34125 -10 24 C-10.66 24 -11.32 24 -12 24 C-13.18546875 32.35428766 -13.11340622 40.64760595 -13.0625 49.0625 C-13.05747414 50.51497241 -13.05291316 51.96744651 -13.04882812 53.41992188 C-13.03876889 56.94669117 -13.01917885 60.47322191 -13 64 C-19.27 64 -25.54 64 -32 64 C-31.67 61.69 -31.34 59.38 -31 57 C-30.91704979 55.22773418 -30.87224559 53.45316031 -30.87060547 51.67895508 C-30.86587723 50.19755791 -30.86587723 50.19755791 -30.86105347 48.68623352 C-30.8630777 47.64122177 -30.86510193 46.59621002 -30.8671875 45.51953125 C-30.86623077 44.42912033 -30.86527405 43.33870941 -30.86428833 42.21525574 C-30.86361018 39.9199518 -30.86543893 37.62464591 -30.86962891 35.3293457 C-30.87499783 31.81392127 -30.86966355 28.29862369 -30.86328125 24.78320312 C-30.86394179 22.54947888 -30.86522246 20.31575472 -30.8671875 18.08203125 C-30.86516327 17.03094681 -30.86313904 15.97986237 -30.86105347 14.89692688 C-30.86420563 13.91878525 -30.86735779 12.94064362 -30.87060547 11.93286133 C-30.87140106 11.07461258 -30.87219666 10.21636383 -30.87301636 9.33210754 C-30.94295245 6.69147017 -30.94295245 6.69147017 -32 3 C-26.06 2.67 -20.12 2.34 -14 2 C-13.67 3.98 -13.34 5.96 -13 8 C-12.154375 7.195625 -11.30875 6.39125 -10.4375 5.5625 C-7.1484842 2.78371338 -4.31370396 2.25882224 0 2 C0 1.34 0 0.68 0 0 Z " fill="#1577FB" transform="translate(780,119)"/>
<path d="M0 0 C0.33 0.66 0.66 1.32 1 2 C2.60681641 1.87431641 2.60681641 1.87431641 4.24609375 1.74609375 C5.64320866 1.64295104 7.04034524 1.54010157 8.4375 1.4375 C9.14455078 1.38142578 9.85160156 1.32535156 10.58007812 1.26757812 C12.38427837 1.13809007 14.19231952 1.06478392 16 1 C17 2 17 2 17.12025452 4.43605042 C17.1169236 6.05820717 17.1169236 6.05820717 17.11352539 7.71313477 C17.11344986 8.9343251 17.11337433 10.15551544 17.11329651 11.41371155 C17.10818911 12.75627686 17.10297311 14.09884175 17.09765625 15.44140625 C17.09579199 16.80761158 17.09436813 18.17381757 17.09336853 19.5400238 C17.08954394 23.14201695 17.07971417 26.74397 17.06866455 30.34594727 C17.05844916 34.01903745 17.05387064 37.69213409 17.04882812 41.36523438 C17.03809184 48.57684334 17.02049553 55.78841095 17 63 C11.06 63 5.12 63 -1 63 C-1.02255449 54.9334741 -1.04091709 46.86697254 -1.05181217 38.80042362 C-1.05704014 35.05516963 -1.06413622 31.30993824 -1.07543945 27.56469727 C-1.08627141 23.95318313 -1.09227749 20.34169079 -1.09487724 16.73016167 C-1.09673094 15.34939671 -1.10035049 13.968633 -1.10573006 12.58787727 C-1.11294447 10.66024048 -1.11340809 8.73258193 -1.11352539 6.80493164 C-1.115746 5.70572891 -1.11796661 4.60652618 -1.12025452 3.47401428 C-1 1 -1 1 0 0 Z " fill="#177AFD" transform="translate(571,120)"/>
<path d="M0 0 C3.23635421 2.71154001 4.81306509 4.59798816 5.375 8.8125 C5 12 5 12 2.875 14.8125 C-0.32310495 17.24584072 -2.00837066 17.91684106 -6 18 C-9.4076389 17.049031 -11.9218917 15.90935162 -14 13 C-14.90114046 9.81134913 -15.10637716 7.57177725 -14.5 4.3125 C-11.16329745 -0.83158309 -5.56673197 -1.85557732 0 0 Z " fill="#1777FA" transform="translate(584,99)"/>
<path d="M0 0 C5.61 0 11.22 0 17 0 C17 27.72 17 55.44 17 84 C11.72 84 6.44 84 1 84 C1 83.67 1 83.34 1 83 C5.62 83 10.24 83 15 83 C15 56.27 15 29.54 15 2 C9.72 2 4.44 2 -1 2 C-0.67 1.34 -0.34 0.68 0 0 Z " fill="#1A72F4" transform="translate(541,99)"/>
<path d="M0 0 C0.33 0.66 0.66 1.32 1 2 C4.63 2 8.26 2 12 2 C12 2.33 12 2.66 12 3 C8.37 3 4.74 3 1 3 C1 22.47 1 41.94 1 62 C5.62 62 10.24 62 15 62 C15 42.53 15 23.06 15 3 C15.33 3 15.66 3 16 3 C16 22.8 16 42.6 16 63 C10.39 63 4.78 63 -1 63 C-1.02255449 54.9334741 -1.04091709 46.86697254 -1.05181217 38.80042362 C-1.05704014 35.05516963 -1.06413622 31.30993824 -1.07543945 27.56469727 C-1.08627141 23.95318313 -1.09227749 20.34169079 -1.09487724 16.73016167 C-1.09673094 15.34939671 -1.10035049 13.968633 -1.10573006 12.58787727 C-1.11294447 10.66024048 -1.11340809 8.73258193 -1.11352539 6.80493164 C-1.115746 5.70572891 -1.11796661 4.60652618 -1.12025452 3.47401428 C-1 1 -1 1 0 0 Z " fill="#1168F1" transform="translate(571,120)"/>
<path d="M0 0 C5.53588533 -0.02464775 11.071739 -0.04283496 16.60766602 -0.05493164 C18.4924373 -0.05997244 20.37720465 -0.06680498 22.26196289 -0.07543945 C24.96501636 -0.08751617 27.66801831 -0.09323068 30.37109375 -0.09765625 C31.21900986 -0.10281754 32.06692596 -0.10797882 32.9405365 -0.11329651 C34.96071068 -0.11349195 36.98077934 -0.06206211 39 0 C40 1 40 1 40.0625 3.5625 C40.041875 4.366875 40.02125 5.17125 40 6 C39.505 4.02 39.505 4.02 39 2 C35.39007621 2.65585189 35.39007621 2.65585189 32 4 C32 3.34 32 2.68 32 2 C31.31486328 2.03552979 30.62972656 2.07105957 29.92382812 2.10766602 C26.78286844 2.26646369 23.64148896 2.41455779 20.5 2.5625 C18.88351563 2.64661133 18.88351563 2.64661133 17.234375 2.73242188 C11.33161245 3.00236528 5.83481843 2.95594719 0 2 C0 1.34 0 0.68 0 0 Z " fill="#0D6BF6" transform="translate(220,174)"/>
<path d="M0 0 C5.94 0 11.88 0 18 0 C17.1302743 4.34862851 16.0525056 7.16270693 14 11 C13.67 10.34 13.34 9.68 13 9 C13.9375 6.375 13.9375 6.375 15 4 C12.16730334 2.58365167 9.52533562 2.6536995 6.375 2.4375 C5.18648437 2.35371094 3.99796875 2.26992187 2.7734375 2.18359375 C1.40058594 2.09271484 1.40058594 2.09271484 0 2 C0 1.34 0 0.68 0 0 Z " fill="#166DF1" transform="translate(659,156)"/>
<path d="M0 0 C0.83265381 0.00523682 1.66530762 0.01047363 2.52319336 0.01586914 C3.42231445 0.0190918 4.32143555 0.02231445 5.24780273 0.02563477 C6.66609375 0.03820312 6.66609375 0.03820312 8.11303711 0.05102539 C9.06243164 0.05553711 10.01182617 0.06004883 10.98999023 0.06469727 C13.34356776 0.07652429 15.69702188 0.09300514 18.05053711 0.11352539 C18.05053711 0.77352539 18.05053711 1.43352539 18.05053711 2.11352539 C11.78053711 2.11352539 5.51053711 2.11352539 -0.94946289 2.11352539 C-0.94946289 5.08352539 -0.94946289 8.05352539 -0.94946289 11.11352539 C-1.27946289 11.11352539 -1.60946289 11.11352539 -1.94946289 11.11352539 C-2.14352767 9.46845321 -2.32954224 7.82242945 -2.51196289 6.17602539 C-2.61637695 5.25950195 -2.72079102 4.34297852 -2.82836914 3.39868164 C-2.86833008 2.64458008 -2.90829102 1.89047852 -2.94946289 1.11352539 C-1.94946289 0.11352539 -1.94946289 0.11352539 0 0 Z " fill="#176FF2" transform="translate(334.949462890625,98.886474609375)"/>
<path d="M0 0 C3.76648956 1.6886947 5.16858533 3.24559993 7 7 C7 7.99 7 8.98 7 10 C11.95 10 16.9 10 22 10 C22 8.35 22 6.7 22 5 C22.66 5.33 23.32 5.66 24 6 C24 7.98 24 9.96 24 12 C11.22027344 12.57602541 11.22027344 12.57602541 6 11 C2.71533986 7.73561554 1.26651244 4.41823593 0 0 Z " fill="#156CF0" transform="translate(653,117)"/>
<path d="M0 0 C1.66666667 1.66666667 3.33333333 3.33333333 5 5 C5.763125 5.721875 6.52625 6.44375 7.3125 7.1875 C9 9 9 9 9 11 C9.57234375 11.25523437 10.1446875 11.51046875 10.734375 11.7734375 C13.24173733 13.13087159 15.1330456 14.71974104 17.25 16.625 C17.95640625 17.25664062 18.6628125 17.88828125 19.390625 18.5390625 C19.92171875 19.02117187 20.4528125 19.50328125 21 20 C15.29720035 20 11.0219406 14.71428172 7 11 C0 3.21955403 0 3.21955403 0 0 Z " fill="#136CF4" transform="translate(166,202)"/>
<path d="M0 0 C0.74958984 0.01353516 1.49917969 0.02707031 2.27148438 0.04101562 C4.11879767 0.07631461 5.96574066 0.13012083 7.8125 0.1875 C7.4825 0.8475 7.1525 1.5075 6.8125 2.1875 C5.92046875 2.14109375 5.0284375 2.0946875 4.109375 2.046875 C2.93890625 2.01078125 1.7684375 1.9746875 0.5625 1.9375 C-0.59765625 1.89109375 -1.7578125 1.8446875 -2.953125 1.796875 C-6.83122519 2.26524459 -7.6786602 3.32654234 -10.1875 6.1875 C-13.4375 6.9375 -13.4375 6.9375 -16.1875 7.1875 C-15.424375 6.589375 -14.66125 5.99125 -13.875 5.375 C-11.26453684 3.44824064 -11.26453684 3.44824064 -10.03125 1.5625 C-7.01755999 -0.68499763 -3.60075131 -0.12264568 0 0 Z " fill="#1F7AF6" transform="translate(838.1875,163.8125)"/>
<path d="M0 0 C1.051875 1.1446875 1.051875 1.1446875 2.125 2.3125 C7.64058702 7.46837482 12.70958952 8.53017355 20 9 C20 9.33 20 9.66 20 10 C18.10489301 10.08160748 16.20875496 10.13946459 14.3125 10.1875 C12.72888672 10.23970703 12.72888672 10.23970703 11.11328125 10.29296875 C7.61841396 9.96409165 5.77061447 9.12293836 3 7 C3 6.34 3 5.68 3 5 C2.34 5 1.68 5 1 5 C0.67 3.35 0.34 1.7 0 0 Z " fill="#136EF4" transform="translate(804,162)"/>
<path d="M0 0 C2.28586914 2.21660037 4.33198192 4.55947162 6.375 7 C8.99272428 10.02344376 11.35220773 12.23137344 15 14 C14.01 14.33 13.02 14.66 12 15 C6.19209122 12.0423791 2.6841276 7.81560981 0 2 C0 1.34 0 0.68 0 0 Z " fill="#126CF4" transform="translate(616,154)"/>
<path d="M0 0 C0.33 0 0.66 0 1 0 C2.32286246 4.96073422 2.08893197 9.91111512 2 15 C1.01 14.67 0.02 14.34 -1 14 C-1.02685938 11.85423363 -1.04633088 9.70837355 -1.0625 7.5625 C-1.07410156 6.36753906 -1.08570313 5.17257813 -1.09765625 3.94140625 C-1 1 -1 1 0 0 Z " fill="#0E83F7" transform="translate(402,137)"/>
<path d="M0 0 C0.19335938 0.64453125 0.38671875 1.2890625 0.5859375 1.953125 C1.88708247 4.34351201 1.88708247 4.34351201 5.0390625 4.609375 C6.81410156 4.67898437 6.81410156 4.67898437 8.625 4.75 C10.40777344 4.83507812 10.40777344 4.83507812 12.2265625 4.921875 C13.14179687 4.94765625 14.05703125 4.9734375 15 5 C15 5.33 15 5.66 15 6 C10.05 6.33 5.1 6.66 0 7 C-0.33 5.02 -0.66 3.04 -1 1 C-0.67 0.67 -0.34 0.34 0 0 Z " fill="#198DFD" transform="translate(722,176)"/>
<path d="M0 0 C0.66 0 1.32 0 2 0 C2.18451025 9.41002278 2.18451025 9.41002278 1 14 C0.67 14 0.34 14 0 14 C-0.91297308 9.02936879 -0.91297308 4.97063121 0 0 Z " fill="#126AF6" transform="translate(138,56)"/>
<path d="M0 0 C0.66 0 1.32 0 2 0 C2.5775 1.0725 3.155 2.145 3.75 3.25 C5.48375824 6.3026529 7.3634908 8.64597393 10 11 C5.57882285 9.64908476 3.556657 7.8349855 1 4 C0.25 1.6875 0.25 1.6875 0 0 Z " fill="#1971F3" transform="translate(139,230)"/>
<path d="M0 0 C3.42054006 1.14018002 4.2426201 1.92458518 6 5 C5.6875 7.25 5.6875 7.25 5 9 C1.125 3.375 1.125 3.375 0 0 Z " fill="#0E74F6" transform="translate(275,96)"/>
<path d="M0 0 C1.65 0 3.3 0 5 0 C5 0.33 5 0.66 5 1 C3.35 1 1.7 1 0 1 C0 0.67 0 0.34 0 0 Z " fill="#00CBFF" transform="translate(209,137)"/>
<path d="M0 0 C3 1 3 1 3 1 Z " fill="#00D4FF" transform="translate(249,278)"/>
<path d="" fill="#007FFF" transform="translate(0,0)"/>
<path d="" fill="#00FFFF" transform="translate(0,0)"/>
<path d="M0 0 C2 1 2 1 2 1 Z " fill="#00FFFF" transform="translate(212,281)"/>
<path d="" fill="#1F7FFF" transform="translate(0,0)"/>
<path d="M0 0 C2 1 2 1 2 1 Z " fill="#2AD4FF" transform="translate(369,166)"/>
<path d="" fill="#00D4FF" transform="translate(0,0)"/>
<path d="" fill="#00FFFF" transform="translate(0,0)"/>
<path d="M0 0 C2 1 2 1 2 1 Z " fill="#007FFF" transform="translate(837,162)"/>
<path d="" fill="#00FFFF" transform="translate(0,0)"/>
<path d="M0 0 C2 1 2 1 2 1 Z " fill="#2AD4FF" transform="translate(485,162)"/>
<path d="" fill="#4A94FF" transform="translate(0,0)"/>
<path d="" fill="#00FFFF" transform="translate(0,0)"/>
<path d="" fill="#00FFFF" transform="translate(0,0)"/>
<path d="M0 0 C2 1 2 1 2 1 Z " fill="#00BFFF" transform="translate(701,146)"/>
<path d="M0 0 C2 1 2 1 2 1 Z " fill="#00FFFF" transform="translate(704,145)"/>
<path d="" fill="#00D4FF" transform="translate(0,0)"/>
<path d="" fill="#00FFFF" transform="translate(0,0)"/>
<path d="" fill="#00FFFF" transform="translate(0,0)"/>
<path d="" fill="#00FFFF" transform="translate(0,0)"/>
<path d="" fill="#007FFF" transform="translate(0,0)"/>
<path d="M0 0 C2 1 2 1 2 1 Z " fill="#00FFFF" transform="translate(221,124)"/>
<path d="M0 0 C2 1 2 1 2 1 Z " fill="#0094FF" transform="translate(165,124)"/>
<path d="M0 0 C2 1 2 1 2 1 Z " fill="#00FFFF" transform="translate(777,119)"/>
<path d="M0 0 C2 1 2 1 2 1 Z " fill="#1FBFFF" transform="translate(764,119)"/>
<path d="M0 0 C2 1 2 1 2 1 Z " fill="#00FFFF" transform="translate(717,119)"/>
<path d="M0 0 C2 1 2 1 2 1 Z " fill="#00FFFF" transform="translate(709,119)"/>
<path d="M0 0 C2 1 2 1 2 1 Z " fill="#00BFFF" transform="translate(584,119)"/>
<path d="M0 0 C2 1 2 1 2 1 Z " fill="#19CCFF" transform="translate(517,119)"/>
<path d="M0 0 C2 1 2 1 2 1 Z " fill="#00FFFF" transform="translate(457,119)"/>
<path d="M0 0 C2 1 2 1 2 1 Z " fill="#00BFFF" transform="translate(628,117)"/>
<path d="" fill="#3F7FFF" transform="translate(0,0)"/>
<path d="" fill="#3F7FFF" transform="translate(0,0)"/>
<path d="" fill="#007FFF" transform="translate(0,0)"/>
<path d="" fill="#00FFFF" transform="translate(0,0)"/>
<path d="" fill="#00FFFF" transform="translate(0,0)"/>
<path d="" fill="#00FFFF" transform="translate(0,0)"/>
<path d="" fill="#00FFFF" transform="translate(0,0)"/>
<path d="" fill="#007FFF" transform="translate(0,0)"/>
<path d="" fill="#007FFF" transform="translate(0,0)"/>
<path d="" fill="#00FFFF" transform="translate(0,0)"/>
<path d="" fill="#55AAFF" transform="translate(0,0)"/>
<path d="" fill="#00FFFF" transform="translate(0,0)"/>
<path d="" fill="#007FFF" transform="translate(0,0)"/>
<path d="" fill="#007FFF" transform="translate(0,0)"/>
<path d="" fill="#00FFFF" transform="translate(0,0)"/>
<path d="" fill="#007FFF" transform="translate(0,0)"/>
<path d="" fill="#55AAFF" transform="translate(0,0)"/>
<path d="" fill="#007FFF" transform="translate(0,0)"/>
<path d="" fill="#55AAFF" transform="translate(0,0)"/>
<path d="" fill="#00FFFF" transform="translate(0,0)"/>
<path d="" fill="#00FFFF" transform="translate(0,0)"/>
<path d="" fill="#00FFFF" transform="translate(0,0)"/>
<path d="" fill="#55AAFF" transform="translate(0,0)"/>
<path d="" fill="#007FFF" transform="translate(0,0)"/>
<path d="" fill="#00FFFF" transform="translate(0,0)"/>
<path d="" fill="#00FFFF" transform="translate(0,0)"/>
<path d="" fill="#00FFFF" transform="translate(0,0)"/>
<path d="" fill="#00FFFF" transform="translate(0,0)"/>
<path d="" fill="#007FFF" transform="translate(0,0)"/>
<path d="" fill="#007FFF" transform="translate(0,0)"/>
<path d="" fill="#00FFFF" transform="translate(0,0)"/>
<path d="" fill="#00FFFF" transform="translate(0,0)"/>
<path d="" fill="#55AAFF" transform="translate(0,0)"/>
<path d="" fill="#2A7FFF" transform="translate(0,0)"/>
<path d="" fill="#00FFFF" transform="translate(0,0)"/>
<path d="" fill="#00FFFF" transform="translate(0,0)"/>
<path d="" fill="#00FFFF" transform="translate(0,0)"/>
<path d="" fill="#00FFFF" transform="translate(0,0)"/>
<path d="" fill="#00FFFF" transform="translate(0,0)"/>
<path d="" fill="#00FFFF" transform="translate(0,0)"/>
<path d="" fill="#00FFFF" transform="translate(0,0)"/>
<path d="" fill="#007FFF" transform="translate(0,0)"/>
<path d="" fill="#007FFF" transform="translate(0,0)"/>
<path d="" fill="#007FFF" transform="translate(0,0)"/>
<path d="" fill="#00FFFF" transform="translate(0,0)"/>
<path d="" fill="#007FFF" transform="translate(0,0)"/>
<path d="" fill="#00FFFF" transform="translate(0,0)"/>
<path d="" fill="#00FFFF" transform="translate(0,0)"/>
<path d="" fill="#00FFFF" transform="translate(0,0)"/>
<path d="" fill="#007FFF" transform="translate(0,0)"/>
<path d="" fill="#007FFF" transform="translate(0,0)"/>
<path d="" fill="#00AAFF" transform="translate(0,0)"/>
<path d="" fill="#00FFFF" transform="translate(0,0)"/>
<path d="" fill="#00FFFF" transform="translate(0,0)"/>
<path d="" fill="#00FFFF" transform="translate(0,0)"/>
<path d="" fill="#00AAFF" transform="translate(0,0)"/>
<path d="" fill="#00FFFF" transform="translate(0,0)"/>
<path d="" fill="#007FFF" transform="translate(0,0)"/>
<path d="" fill="#00FFFF" transform="translate(0,0)"/>
<path d="" fill="#00FFFF" transform="translate(0,0)"/>
<path d="" fill="#007FFF" transform="translate(0,0)"/>
<path d="" fill="#00FFFF" transform="translate(0,0)"/>
<path d="" fill="#3399FF" transform="translate(0,0)"/>
<path d="" fill="#00FFFF" transform="translate(0,0)"/>
<path d="" fill="#55AAFF" transform="translate(0,0)"/>
<path d="" fill="#00FFFF" transform="translate(0,0)"/>
<path d="" fill="#00FFFF" transform="translate(0,0)"/>
<path d="" fill="#00FFFF" transform="translate(0,0)"/>
<path d="" fill="#00FFFF" transform="translate(0,0)"/>
<path d="" fill="#00FFFF" transform="translate(0,0)"/>
<path d="" fill="#007FFF" transform="translate(0,0)"/>
<path d="" fill="#00FFFF" transform="translate(0,0)"/>
<path d="" fill="#007FFF" transform="translate(0,0)"/>
<path d="" fill="#00FFFF" transform="translate(0,0)"/>
<path d="" fill="#007FFF" transform="translate(0,0)"/>
<path d="" fill="#007FFF" transform="translate(0,0)"/>
<path d="" fill="#00FFFF" transform="translate(0,0)"/>
<path d="" fill="#00FFFF" transform="translate(0,0)"/>
<path d="" fill="#00FFFF" transform="translate(0,0)"/>
<path d="" fill="#00FFFF" transform="translate(0,0)"/>
<path d="" fill="#00FFFF" transform="translate(0,0)"/>
<path d="" fill="#00FFFF" transform="translate(0,0)"/>
<path d="" fill="#007FFF" transform="translate(0,0)"/>
<path d="" fill="#55AAFF" transform="translate(0,0)"/>
<path d="" fill="#55AAFF" transform="translate(0,0)"/>
<path d="" fill="#55AAFF" transform="translate(0,0)"/>
<path d="" fill="#007FFF" transform="translate(0,0)"/>
<path d="" fill="#007FFF" transform="translate(0,0)"/>
<path d="" fill="#00FFFF" transform="translate(0,0)"/>
<path d="" fill="#00FFFF" transform="translate(0,0)"/>
<path d="" fill="#00FFFF" transform="translate(0,0)"/>
<path d="" fill="#00FFFF" transform="translate(0,0)"/>
<path d="" fill="#00FFFF" transform="translate(0,0)"/>
<path d="" fill="#007FFF" transform="translate(0,0)"/>
<path d="" fill="#00AAFF" transform="translate(0,0)"/>
<path d="" fill="#00FFFF" transform="translate(0,0)"/>
<path d="" fill="#00FFFF" transform="translate(0,0)"/>
<path d="" fill="#55AAFF" transform="translate(0,0)"/>
<path d="" fill="#00FFFF" transform="translate(0,0)"/>
<path d="" fill="#00FFFF" transform="translate(0,0)"/>
<path d="" fill="#00FFFF" transform="translate(0,0)"/>
<path d="" fill="#00FFFF" transform="translate(0,0)"/>
<path d="" fill="#00FFFF" transform="translate(0,0)"/>
<path d="" fill="#00FFFF" transform="translate(0,0)"/>
<path d="" fill="#007FFF" transform="translate(0,0)"/>
<path d="" fill="#00FFFF" transform="translate(0,0)"/>
<path d="" fill="#00FFFF" transform="translate(0,0)"/>
<path d="" fill="#00FFFF" transform="translate(0,0)"/>
<path d="" fill="#00FFFF" transform="translate(0,0)"/>
<path d="" fill="#00FFFF" transform="translate(0,0)"/>
<path d="" fill="#00FFFF" transform="translate(0,0)"/>
<path d="" fill="#007FFF" transform="translate(0,0)"/>
<path d="" fill="#007FFF" transform="translate(0,0)"/>
<path d="" fill="#007FFF" transform="translate(0,0)"/>
<path d="" fill="#00FFFF" transform="translate(0,0)"/>
<path d="" fill="#00FFFF" transform="translate(0,0)"/>
</svg>
